<svg width="603" height="189" viewBox="0 0 603 189" fill="none" xmlns="http://www.w3.org/2000/svg">
<path fill-rule="evenodd" clip-rule="evenodd" d="M116.486 1.92783C110.622 5.01283 104.266 11.5998 101.291 17.6748C98.4079 23.5618 98.6179 23.4228 91.4169 24.2628C86.7499 24.8068 86.2439 24.6598 85.2449 22.4658C83.7239 19.1288 78.0459 12.8308 76.5579 12.8308C74.9389 12.8308 73.1079 16.8298 71.1149 24.7168L69.5009 31.1018L56.0399 35.8268C48.6369 38.4258 42.1289 41.2668 41.5769 42.1408C40.6899 43.5468 42.4479 50.6098 45.7059 58.7328C46.1349 59.7998 45.6999 59.9698 43.8849 59.4438C35.8139 57.1058 34.8829 57.2778 31.0049 61.8258L27.3309 66.1348L24.4829 57.9558C21.1409 48.3538 19.7389 47.5258 12.3519 50.7938C4.29292 54.3588 -0.00308521 59.8398 0.00391479 66.5488C0.00491479 68.0788 8.32591 94.2768 18.4939 124.767C38.1189 183.61 38.4349 184.337 45.7189 187.454C47.4889 188.211 50.6969 188.831 52.8479 188.831C57.1319 188.831 137.053 162.154 141.501 159.239C147.366 155.396 150.326 142.245 146.172 138.486C143.92 136.448 143.536 136.439 141.598 138.377C140.467 139.508 140.209 141.07 140.637 144.193C141.708 152.006 141.413 152.161 96.5009 167.322C70.7319 176.021 55.0279 180.826 52.3619 180.828C46.6449 180.832 43.9329 178.409 43.2919 172.725C42.3619 164.47 42.3839 164.459 87.5009 149.238C109.501 141.816 129.07 134.976 130.988 134.037C132.906 133.099 135.482 130.818 136.713 128.969C141.513 121.763 141.558 121.989 126.052 76.1058L111.781 33.8808L114.447 30.7128C120.77 23.1988 124.547 10.1258 122.617 2.43582C121.827 -0.709175 121.543 -0.733174 116.486 1.92783ZM97.7779 33.3418C98.7509 39.7768 98.8809 39.9438 102.417 39.2808L105.774 38.6508L118.888 77.9908C126.1 99.6278 132.001 118.715 132.001 120.407C132.001 125.564 128.774 127.388 106.443 134.851C94.9539 138.69 85.0929 141.807 84.5279 141.777C83.9629 141.747 81.6729 139.157 79.4379 136.019L75.3759 130.316L77.8059 124.96C79.4959 121.235 80.3929 117.09 80.7509 111.354C81.3509 101.744 79.9779 94.7828 75.9149 86.8308C72.7199 80.5758 65.5509 72.4878 63.7229 73.0748C61.6949 73.7258 57.2879 82.7678 55.9689 88.9808C54.4039 96.3568 55.1559 106.664 57.7999 114.081C58.9269 117.243 59.5459 119.826 59.1749 119.82C58.8039 119.814 56.2919 119.139 53.5919 118.32C50.8919 117.501 46.0189 116.831 42.7629 116.831H36.8419L37.5419 120.081C39.5619 129.465 43.3779 136.346 50.5859 143.597C58.6069 151.668 58.6619 151.206 49.3079 154.259C46.4509 155.191 42.9399 156.878 41.5049 158.007C40.0699 159.135 38.7019 159.865 38.4649 159.628C37.0549 158.219 8.00092 69.1918 8.00092 66.2818C8.00092 63.7308 8.74392 62.0468 10.6469 60.2828C15.2139 56.0508 16.1899 56.8638 20.0099 68.0808C24.4979 81.2568 25.8579 81.7518 32.5509 72.6448C35.1019 69.1718 37.3169 66.1988 37.4709 66.0378C37.6259 65.8768 41.1889 66.7558 45.3879 67.9918C52.4519 70.0698 53.1449 70.1158 54.6559 68.6038C56.1679 67.0928 56.0389 66.2188 52.9309 56.9158C50.8069 50.5598 49.9259 46.5348 50.5359 45.9748C51.9429 44.6838 70.1379 38.7978 71.0259 39.3468C71.4409 39.6028 72.0859 41.0538 72.4609 42.5718C73.8119 48.0398 81.4349 57.8308 84.3429 57.8308C84.5689 57.8308 85.7829 55.4688 87.0399 52.5808C88.6249 48.9398 89.3959 45.0358 89.5569 39.8418C89.7709 32.9248 89.9689 32.3018 92.1449 31.6808C95.7449 30.6538 97.4479 31.1558 97.7779 33.3418Z" fill="#E45300"/>
<path fill-rule="evenodd" clip-rule="evenodd" d="M99.833 49.8641C96.775 51.6481 91.233 60.2641 89.607 65.7621C87.429 73.1241 87.587 79.6521 90.108 86.3901L92.216 92.0251L96.169 88.1771C98.343 86.0611 101.496 81.4561 103.177 77.9441C106.026 71.9891 106.201 70.9781 105.769 62.9441C105.354 55.2041 103.675 48.7791 102.089 48.8601C101.765 48.8771 100.75 49.3291 99.833 49.8641ZM113.383 93.7791C102.386 96.4041 91.78 106.266 88.189 117.204C85.607 125.07 85.3 130.83 87.462 130.83C88.267 130.83 91.432 129.892 94.497 128.745C101.847 125.995 111.08 117.468 114.473 110.296C117.03 104.891 119.073 92.7401 117.392 92.9321C116.902 92.9891 115.097 93.3701 113.383 93.7791Z" fill="#FF7F36"/>
<path fill-rule="evenodd" clip-rule="evenodd" d="M386.242 84.4254L386.502 129.284L396.502 131.531C412.502 135.125 423.353 134.257 430.915 128.779C437.982 123.66 438.502 121.777 438.502 101.331C438.502 86.2784 438.224 82.8234 436.803 80.2294C434.288 75.6374 428.598 71.0694 423.765 69.7624C418.232 68.2664 406.389 69.0484 402.28 71.1814L399.057 72.8544L398.78 58.6994C398.509 44.8764 398.443 44.4994 395.979 42.6614C394.591 41.6264 391.773 40.5064 389.718 40.1724L385.981 39.5664L386.242 84.4254ZM452.457 41.0884C452.137 41.9224 452.016 60.3184 452.189 81.9684C452.531 125.002 452.669 126.064 458.516 130.663C461.855 133.29 468.507 133.567 471.859 131.219L474.161 129.606L471.226 127.821C466.453 124.919 466.002 120.913 466.002 81.4444C466.002 46.0624 465.994 45.9344 463.75 43.3254C460.994 40.1214 453.405 38.6184 452.457 41.0884ZM181.954 79.4744C181.75 126.222 181.82 128.093 183.848 130.121C184.956 131.23 187.741 132.273 190.39 132.571L195.002 133.091V107.006V80.9224L198.752 80.1324C200.815 79.6984 205.313 79.3494 208.748 79.3564C214.221 79.3684 215.336 79.7104 217.748 82.1214L220.502 84.8734L220.823 106.909L221.143 128.946L224.323 130.885C226.071 131.951 228.964 132.825 230.752 132.827L234.002 132.831V109.286C234.002 85.8064 234.009 85.7334 236.387 83.3554C239.329 80.4144 246.2 78.4584 250.657 79.2944C252.493 79.6384 255.233 80.9854 256.748 82.2874L259.502 84.6544L259.761 104.992C259.904 116.179 260.236 126.29 260.5 127.462C261.044 129.873 266.499 132.831 270.403 132.831H273.002V108.396C273.002 93.6004 272.583 82.8514 271.941 81.1464C270.243 76.6434 265.049 72.0074 259.717 70.2364C252.968 67.9954 239.283 68.6684 232.826 71.5594L228.15 73.6534L223.826 71.4924C220.026 69.5934 218.169 69.3704 208.502 69.6554C202.452 69.8334 194.802 70.0494 191.502 70.1354C188.202 70.2214 184.715 69.9154 183.752 69.4544C182.143 68.6844 181.998 69.4904 181.954 79.4744ZM285.664 69.5774C285.411 69.9924 285.84 76.1814 286.619 83.3314C288.805 103.411 291.611 111.291 299.626 119.86L304.064 124.605L297.679 130.736C288.965 139.104 286.144 147.447 289.396 155.232C291.212 159.579 294.547 161.831 299.165 161.831C303.488 161.831 304.541 160.707 302.97 157.77C302.351 156.614 301.789 153.274 301.72 150.347C301.557 143.379 304.578 138.956 315.018 130.88C333.349 116.699 338.388 106.27 340.555 78.0294L341.268 68.7264L338.385 69.4194C329.546 71.5434 327.861 74.2634 326.052 89.3314C324.789 99.8524 322.19 107.096 317.445 113.316C315.971 115.249 314.181 116.831 313.467 116.831C311.7 116.831 306.38 109.949 304.061 104.661C303.016 102.279 301.459 95.2354 300.6 89.0064C298.842 76.2464 297.581 72.8504 293.993 71.2124C290.302 69.5274 286.188 68.7204 285.664 69.5774ZM494.218 70.6604C488.429 72.7274 484.704 75.7134 482.157 80.3314C480.788 82.8134 480.502 86.4684 480.502 101.495V119.659L483.511 123.941C487.937 130.237 493.943 132.965 504.731 133.579C515.654 134.201 523.603 132.627 528.893 128.795C535.905 123.715 536.49 121.68 536.496 102.331C536.5 92.9814 536.165 84.1284 535.752 82.6584C534.658 78.7564 530.343 74.0494 525.626 71.6134C519.634 68.5174 501.74 67.9754 494.218 70.6604ZM561.887 70.1464C551.889 73.8984 548.545 79.7764 549.164 92.5114C549.392 97.2084 550.226 101.672 551.251 103.691C552.922 106.98 552.903 107.144 550.323 111.546C547.273 116.75 546.889 123.484 549.422 127.349C552.423 131.929 556.479 133.146 571.002 133.825C587.296 134.586 589.002 135.284 589.002 141.192C589.002 144.367 588.417 146.016 586.752 147.534C583.231 150.744 577.454 152.163 570.76 151.463C562.156 150.564 556.402 147.738 554.33 143.393C552.243 139.016 551.507 138.944 550.1 142.98C548.371 147.941 548.798 151.435 551.53 154.682C555.68 159.614 561.774 161.334 575.002 161.309C585.042 161.29 587.111 160.988 591.304 158.925C597.3 155.974 600.622 151.7 602.033 145.12C603.886 136.483 600.508 128.27 594.002 125.589C592.627 125.022 585.087 124.237 577.246 123.844C560.77 123.019 558.681 122.097 559.203 115.882C559.419 113.314 559.917 112.434 561.002 112.705C561.827 112.91 564.077 113.462 566.002 113.931C575.808 116.319 590.07 113.658 594.72 108.571C599.426 103.424 600.002 100.779 600.002 84.3134V68.6964L597.752 69.5144C595.264 70.4174 589.294 70.3964 575.002 69.4314C568.095 68.9644 564.515 69.1594 561.887 70.1464ZM419.462 80.3794C424.359 82.7034 425.002 85.2064 425.002 101.955V116.985L422.152 119.834C420.53 121.457 417.628 122.998 415.413 123.414C410.916 124.257 401.024 122.468 399.835 120.596C399.394 119.9 399.026 112.679 399.017 104.549C398.999 86.6224 399.887 83.6934 406.214 80.8214C411.425 78.4564 415.148 78.3324 419.462 80.3794ZM516.883 79.9394C522.16 81.7794 523.002 84.7964 523.002 101.858V116.985L520.165 119.822C514.912 125.074 502.072 125.055 496.804 119.787L494.002 116.985V101.842C494.002 83.9844 494.711 81.8894 501.502 79.6814C504.799 78.6094 513.485 78.7554 516.883 79.9394ZM583.252 79.8844L587.002 80.9254V88.9284C587.002 98.3764 585.449 102.131 580.883 103.723C569.36 107.739 561.068 101.171 562.322 89.0194C562.905 83.3754 564.159 81.1244 567.467 79.7834C570.369 78.6074 578.849 78.6614 583.252 79.8844Z" fill="white"/>
</svg>
